<svg width="36" height="36" viewBox="0 0 36 36" fill="none" xmlns="http://www.w3.org/2000/svg">
<circle cx="17.9673" cy="17.9673" r="17.9673" fill="#FFC60C"/>
<path d="M11.9785 14.9728C11.9785 11.6651 14.6599 8.98364 17.9676 8.98364C21.2753 8.98364 23.9569 11.6651 23.9569 14.9728C23.9569 16.185 23.5968 17.3132 22.9776 18.2561C22.0254 19.706 21.5489 20.4305 21.4871 20.5387C20.9373 21.5019 21.0391 21.1622 20.97 22.2691C20.9622 22.3935 20.9622 22.5818 20.9622 22.9582C20.9622 23.5095 20.5153 23.9564 19.964 23.9564L15.9713 23.9564C15.42 23.9564 14.9731 23.5095 14.9731 22.9582C14.9731 22.5818 14.973 22.3935 14.9653 22.2691C14.8961 21.1622 14.9973 21.5019 14.4475 20.5387C14.3857 20.4304 13.9101 19.706 12.9579 18.2561C12.3387 17.3132 11.9785 16.185 11.9785 14.9728Z" fill="white"/>
<path d="M14.9731 26.951H20.9622M17.9676 8.98364C14.6599 8.98364 11.9785 11.6651 11.9785 14.9728C11.9785 16.185 12.3387 17.3132 12.9579 18.2561C13.9101 19.706 14.3857 20.4304 14.4475 20.5387C14.9973 21.5019 14.8961 21.1622 14.9653 22.2691C14.973 22.3935 14.9731 22.5818 14.9731 22.9582C14.9731 23.5095 15.42 23.9564 15.9713 23.9564L19.964 23.9564C20.5153 23.9564 20.9622 23.5095 20.9622 22.9582C20.9622 22.5818 20.9622 22.3935 20.97 22.2691C21.0391 21.1622 20.9373 21.5019 21.4871 20.5387C21.5489 20.4305 22.0254 19.706 22.9776 18.2561C23.5968 17.3132 23.9569 16.185 23.9569 14.9728C23.9569 11.6651 21.2753 8.98364 17.9676 8.98364Z" stroke="white" stroke-width="2" stroke-linecap="round" stroke-linejoin="round"/>
</svg>
