<svg width="90" height="47" viewBox="0 0 90 47" fill="none" xmlns="http://www.w3.org/2000/svg">
<g clip-path="url(#clip0_2204_358)">
<path d="M45.6611 34.1859C47.327 35.7509 47.7788 37.6801 47.7206 39.8341C47.658 42.1815 47.7072 44.5289 47.7072 46.9281H43.5993C43.5993 44.6301 43.5993 42.3929 43.5993 40.1534C43.5993 39.3664 43.6194 38.5795 43.5904 37.7947C43.5389 36.3669 42.8524 35.7104 41.4146 35.6812C40.8667 35.6699 40.3166 35.6812 39.6435 35.6812V46.9258H35.5938V21.853C37.9552 21.853 40.2696 21.6866 42.5505 21.898C45.149 22.1363 47.1146 24.2634 47.5909 26.8896C48.1097 29.7564 47.5618 31.897 45.6611 34.1882V34.1859ZM39.7173 24.812V32.5873C41.0858 32.5423 42.5796 33.0909 43.3645 31.5417C44.3283 29.6372 44.3619 27.6226 43.2863 25.7586C42.4835 24.3691 41.0523 24.7738 39.7173 24.812Z" fill="white"/>
<path d="M58.3396 44.0477V21.8732H62.3736V46.9235C59.9451 46.9235 57.5502 47.1259 55.2067 46.8718C52.4651 46.5727 50.3295 44.0185 50.296 41.1494C50.2222 34.8222 50.2826 28.4927 50.2915 22.1632C50.2915 22.0958 50.3362 22.0261 50.3877 21.8822H54.4061C54.4061 22.2936 54.4061 22.7231 54.4061 23.1548C54.4061 29.1088 54.4061 35.065 54.4061 41.019C54.4061 43.571 54.9271 44.0837 57.4898 44.0499C57.7089 44.0477 57.9281 44.0499 58.344 44.0499L58.3396 44.0477Z" fill="white"/>
<path d="M0 21.8574H4.06092C4.99789 26.6489 5.92814 31.4 6.85616 36.151C6.90312 36.151 6.95232 36.1488 6.99928 36.1465C7.92506 31.4 8.85308 26.6534 9.78781 21.8619H13.8487C12.2208 30.233 10.6063 38.5411 8.97607 46.9145H4.87043C3.25366 38.5839 1.63242 30.2465 0 21.8574Z" fill="white"/>
<path d="M20.4044 42.946H25.3844V46.9213H16.5V21.871H20.4044V42.946Z" fill="white"/>
<path d="M56.0664 5.4706C60.8765 5.12208 65.2102 6.40596 69.1839 9.22781C74.6894 2.88709 81.5925 -0.292261 90.0006 0.0202774C80.9664 1.30416 74.3272 6.02147 69.9755 14.1925C66.5407 9.29751 61.8962 6.4262 56.0686 5.46835L56.0664 5.4706Z" fill="white"/>
<path d="M32.4447 46.9572H28.6074V43.0247H32.4447V46.9572Z" fill="white"/>
</g>
<defs>
<clipPath id="clip0_2204_358">
<rect width="90" height="47" fill="white"/>
</clipPath>
</defs>
</svg>
